<svg width="62" height="62" viewBox="0 0 62 62" fill="none" xmlns="http://www.w3.org/2000/svg">
<g clip-path="url(#clip0_40_165)">
<path d="M21.7883 22.7764H32.6416C33.3597 22.7764 33.8215 23.5383 33.4894 24.1749L31.3504 28.2746H20.4971C19.7791 28.2746 19.3172 27.5127 19.6494 26.8761L21.7883 22.7764Z" fill="#0177FF"/>
<path fill-rule="evenodd" clip-rule="evenodd" d="M17.4268 -0.470703L4.85688 24.845C1.06961 32.4725 6.6182 41.4225 15.1342 41.4225H41.6139L36.0932 31.8604H15.1342C13.7149 31.8604 12.7901 30.3688 13.4213 29.0975L23.1665 9.47077L17.4268 -0.470703Z" fill="#172AB4"/>
<path fill-rule="evenodd" clip-rule="evenodd" d="M35.2182 52L47.7881 26.6843C51.5754 19.0568 46.0268 10.1068 37.5108 10.1068H11.0311L16.5518 19.6689H37.5108C38.9301 19.6689 39.8549 21.1605 39.2237 22.4318L29.4785 42.0585L35.2182 52Z" fill="#00CBFE"/>
<path fill-rule="evenodd" clip-rule="evenodd" d="M34.425 31.8605L29.6771 41.4226H40.5921L41.121 40.3574L36.2153 31.8605H34.425Z" fill="#172AB4"/>
</g>
<defs>
<clipPath id="clip0_40_165">
<rect width="62" height="62" fill="white"/>
</clipPath>
</defs>
</svg>
